<svg xmlns="http://www.w3.org/2000/svg" viewBox="0 0 64 64" role="img" aria-label="Smart building favicon">
  <!-- Background -->
  <rect x="4" y="4" width="56" height="56" rx="12" fill="#1a73e8"/>

  <!-- Building -->
  <rect x="18" y="16" width="28" height="36" rx="4" fill="#ffffff"/>

  <!-- Windows -->
  <g fill="#1a73e8" opacity="0.95">
    <rect x="22" y="20" width="6" height="6" rx="1"/>
    <rect x="30" y="20" width="6" height="6" rx="1"/>
    <rect x="38" y="20" width="6" height="6" rx="1"/>

    <rect x="22" y="30" width="6" height="6" rx="1"/>
    <rect x="30" y="30" width="6" height="6" rx="1"/>
    <rect x="38" y="30" width="6" height="6" rx="1"/>

    <rect x="22" y="40" width="6" height="6" rx="1"/>
    <rect x="30" y="40" width="6" height="6" rx="1"/>
    <rect x="38" y="40" width="6" height="6" rx="1"/>
  </g>

  <!-- Door -->
  <rect x="29" y="46" width="6" height="6" rx="1.5" fill="#1a73e8"/>

  <!-- Network nodes + links (smart) -->
  <g stroke="#ffffff" stroke-width="2" stroke-linecap="round" stroke-linejoin="round" opacity="0.95">
    <path d="M14 26 L18 26"/>
    <path d="M14 38 L18 38"/>
    <path d="M50 32 L46 32"/>
  </g>

  <g fill="#ffffff">
    <circle cx="14" cy="26" r="3"/>
    <circle cx="14" cy="38" r="3"/>
    <circle cx="50" cy="32" r="3"/>
  </g>
</svg>
